<?xml version="1.0" encoding="UTF-8"?>
<svg version="1.1" xmlns="http://www.w3.org/2000/svg" width="256" height="256">
<path d="M0 0 C84.48 0 168.96 0 256 0 C256 84.48 256 168.96 256 256 C171.52 256 87.04 256 0 256 C0 171.52 0 87.04 0 0 Z " fill="#FDFDFD" transform="translate(0,0)"/>
<path d="M0 0 C1.875 0.5 1.875 0.5 4 2 C5.59836792 5.98713755 6 9.72005913 6 14 C6.928125 13.95875 7.85625 13.9175 8.8125 13.875 C12 14 12 14 15 16 C15 16.99 15 17.98 15 19 C14.36191406 19.13277344 13.72382813 19.26554687 13.06640625 19.40234375 C12.24011719 19.57894531 11.41382813 19.75554688 10.5625 19.9375 C9.73878906 20.11152344 8.91507813 20.28554688 8.06640625 20.46484375 C6.02338796 20.80752994 6.02338796 20.80752994 5 22 C4.84259395 23.70563778 4.74906608 25.41727244 4.68359375 27.12890625 C4.64169922 28.16337891 4.59980469 29.19785156 4.55664062 30.26367188 C4.51732422 31.35228516 4.47800781 32.44089844 4.4375 33.5625 C4.39431641 34.65498047 4.35113281 35.74746094 4.30664062 36.87304688 C4.20017932 39.58189564 4.09816484 42.29083992 4 45 C11.16219749 41.18532294 11.16219749 41.18532294 16.9375 35.625 C17.618125 34.75875 18.29875 33.8925 19 33 C19.99 33 20.98 33 22 33 C23.2890625 34.6875 23.2890625 34.6875 24.625 37 C28.2141406 42.6567004 33.04362185 48.97612717 39.77734375 50.71875 C40.51082031 50.8115625 41.24429688 50.904375 42 51 C42.54269531 50.14535156 43.08539063 49.29070313 43.64453125 48.41015625 C44.35996094 47.30542969 45.07539063 46.20070312 45.8125 45.0625 C46.52019531 43.96035156 47.22789062 42.85820313 47.95703125 41.72265625 C50 39 50 39 53 38 C53.24632835 40.2428751 53.24632835 40.2428751 53 43 C51.28304482 45.06412411 51.28304482 45.06412411 49.05874634 47.11399841 C44.19919668 52.31445287 43.88311085 56.25315353 44.06005859 63.17602539 C44.0556778 64.25688919 44.051297 65.33775299 44.04678345 66.45137024 C44.04218439 70.00140478 44.09453359 73.54806778 44.1484375 77.09765625 C44.15829384 79.57668507 44.16488604 82.05572881 44.16836548 84.53477478 C44.18361711 89.72069141 44.22464655 94.9054984 44.28662109 100.09106445 C44.36581016 106.72757633 44.40185032 113.36336797 44.42123985 120.0002985 C44.44121831 126.34534788 44.48094398 132.69022351 44.5234375 139.03515625 C44.530229 140.24036486 44.53702049 141.44557346 44.54401779 142.68730354 C44.56726414 146.10953334 44.60431929 149.53131992 44.64599609 152.95336914 C44.6513739 153.95775024 44.65675171 154.96213135 44.66229248 155.99694824 C44.7550874 166.1196246 44.7550874 166.1196246 49.4375 174.75 C50.283125 175.4925 51.12875 176.235 52 177 C57.55184814 182.75012843 56.25794045 193.28269916 56.4296875 200.84570312 C56.75057713 209.06181475 58.73002739 216.52546223 64 223 C69.87402379 227.43548735 74.74416724 228.98081918 82 228 C88.52302923 225.7580107 93.17669992 222.73495012 97 217 C98.80242219 213.22956207 99.29654514 210.16953582 99.3125 206 C99.33763672 204.4840625 99.33763672 204.4840625 99.36328125 202.9375 C98.60072865 196.77148325 94.63536609 193.41645009 90.13671875 189.56640625 C88.12755733 188.09351095 86.38015392 187.18699622 84.0625 186.3125 C83.051875 185.879375 82.04125 185.44625 81 185 C80.30859375 182.91796875 80.30859375 182.91796875 80 181 C87.50217862 181.89165238 92.49779518 183.77995953 98 189 C98.60328125 189.53109375 99.2065625 190.0621875 99.828125 190.609375 C104.3873281 195.42423435 104.77717178 200.62318562 104.64282227 206.9934082 C104.11278319 215.69683291 100.57634114 222.61832306 94.08569336 228.41796875 C86.98114216 233.80688269 79.14821155 234.61599172 70.5 234.4375 C69.04787109 234.44813477 69.04787109 234.44813477 67.56640625 234.45898438 C56.82201689 234.36524138 49.05677467 232.14015695 41.26171875 224.58984375 C32.2006854 214.21425634 29.73490383 202.10268345 28.90917969 188.77539062 C28.4921609 183.44366356 27.41253852 180.30752504 24 176 C19.07581517 169.10614124 18.85319025 163.90445803 18.9375 155.6875 C18.94426758 154.43356445 18.94426758 154.43356445 18.95117188 153.15429688 C18.96289452 151.10283351 18.98082797 149.05140727 19 147 C14.05 147 9.1 147 4 147 C4.11518358 149.66740923 4.24189546 152.33347241 4.375 155 C4.4059375 155.74378906 4.436875 156.48757812 4.46875 157.25390625 C4.88516435 165.23518135 6.28013343 171.36268763 11 178 C13.26598176 182.38431179 13.26071784 186.53735612 13.1953125 191.36328125 C13.1924826 192.15526413 13.18965271 192.94724701 13.18673706 193.76322937 C13.17558863 196.27980999 13.15049422 198.79602789 13.125 201.3125 C13.11496329 203.02408338 13.10583864 204.73567237 13.09765625 206.44726562 C13.07566681 210.63164906 13.04117408 214.81576314 13 219 C13.78375 219.268125 14.5675 219.53625 15.375 219.8125 C18 221 18 221 20 224 C20.6779661 231.11864407 20.6779661 231.11864407 18.125 234.4375 C16 236 16 236 14 237 C13.53101037 239.8159849 13.53101037 239.8159849 13.375 243.0625 C13.26285156 244.71958984 13.26285156 244.71958984 13.1484375 246.41015625 C13.07496094 247.69212891 13.07496094 247.69212891 13 249 C11.68 248.67 10.36 248.34 9 248 C8.98582031 247.25234375 8.97164062 246.5046875 8.95703125 245.734375 C8.81233496 242.7465922 8.605879 239.93125969 8 237 C6.37667033 235.61423077 4.71275535 234.27358732 3 233 C2.43137513 228.52207918 2.52681232 226.13565044 4.25 222 C4.8275 221.34 5.405 220.68 6 220 C7.32 220 8.64 220 10 220 C9.90626284 214.67946356 9.80012382 209.3593713 9.68261719 204.03930664 C9.64439633 202.23045582 9.6095315 200.42153079 9.578125 198.61254883 C9.53232443 196.00835698 9.47435526 193.404673 9.4140625 190.80078125 C9.39673569 189.59268547 9.39673569 189.59268547 9.37905884 188.36018372 C9.23665738 182.91049492 8.68373829 178.9468224 5 174.6875 C0.26746316 168.32815362 0.71885696 160.49401079 0.77294922 152.90234375 C0.77265717 151.81852921 0.77236511 150.73471466 0.77206421 149.61805725 C0.77345065 146.0577883 0.78897968 142.49773211 0.8046875 138.9375 C0.80842006 136.46028762 0.81126589 133.98307376 0.81326294 131.50585938 C0.82088021 125.00229784 0.84051238 118.49882637 0.8626709 111.99530029 C0.8831704 105.35234632 0.89227342 98.70938352 0.90234375 92.06640625 C0.92376002 79.04423253 0.9574857 66.02212107 1 53 C-2.60992379 53.65585189 -2.60992379 53.65585189 -6 55 C-6.16366123 69.1080084 -6.2865628 83.21586921 -6.3626852 97.32463264 C-6.3992201 103.87593631 -6.44877788 110.42660238 -6.52807617 116.97753906 C-6.60412267 123.29938905 -6.64598834 129.62062572 -6.6641407 135.9428978 C-6.67707692 138.35511812 -6.7023388 140.76730479 -6.7401104 143.17926407 C-6.79091712 146.55791042 -6.79792387 149.93402151 -6.79467773 153.31298828 C-6.81984467 154.31064713 -6.8450116 155.30830597 -6.87094116 156.3361969 C-6.87827833 161.53905727 -6.87827833 161.53905727 -4.38820076 165.92162704 C-2.49743008 167.55789282 -2.49743008 167.55789282 -0.50331211 168.86790276 C-0.00721911 169.24149485 0.48887388 169.61508694 1 170 C1 170.66 1 171.32 1 172 C-0.64453125 173.21875 -0.64453125 173.21875 -2.8125 174.5 C-3.52019531 174.9228125 -4.22789062 175.345625 -4.95703125 175.78125 C-5.63121094 176.1834375 -6.30539063 176.585625 -7 177 C-10.24849977 178.72226496 -10.24849977 178.72226496 -11 182 C-8.99141222 183.00654063 -6.98125606 184.00921007 -4.96484375 185 C-4.29582031 185.33 -3.62679687 185.66 -2.9375 186 C-2.26589844 186.33 -1.59429687 186.66 -0.90234375 187 C1 188 1 188 4 190 C3.24074219 190.53109375 2.48148438 191.0621875 1.69921875 191.609375 C0.70535156 192.31578125 -0.28851563 193.0221875 -1.3125 193.75 C-2.29863281 194.44609375 -3.28476563 195.1421875 -4.30078125 195.859375 C-6.7109693 197.77078318 -8.31860982 199.45209133 -10 202 C-13.24233845 201.41496937 -14.88617402 200.45378947 -17.25 198.1875 C-20.87769344 194.92178899 -24.56962821 193.02087134 -29 191 C-29 190.01 -29 189.02 -29 188 C-25.04 186.02 -21.08 184.04 -17 182 C-17.75275243 178.66059991 -17.75275243 178.66059991 -21.3125 177 C-26.62830327 174.48249754 -32.27971155 173.25846346 -38 172 C-38 170.68 -38 169.36 -38 168 C-37.36578125 167.60167969 -36.7315625 167.20335937 -36.078125 166.79296875 C-32.78354658 163.95046594 -33.07853948 160.48426698 -32.75 156.3125 C-32.67265625 155.51521484 -32.5953125 154.71792969 -32.515625 153.89648438 C-32.32745715 151.93248243 -32.16156116 149.96636944 -32 148 C-37.28 148 -42.56 148 -48 148 C-47.91233893 151.16788965 -47.80536523 154.33320595 -47.6875 157.5 C-47.66494141 158.386875 -47.64238281 159.27375 -47.61914062 160.1875 C-47.3489029 166.86974191 -46.00705756 171.98588488 -43 178 C-42.35573377 187.50292689 -45.91899402 193.90300285 -52 201 C-57.91848025 207.05299117 -64.91930706 208.9738762 -73.1875 209.6875 C-82.70599345 209.43024342 -92.33826428 203.01321552 -99.0546875 196.6484375 C-101.9201828 194.22024671 -105.0359341 192.2236308 -108.1875 190.1875 C-108.794729 189.78990479 -109.40195801 189.39230957 -110.02758789 188.98266602 C-116.7729833 184.67572498 -122.92062425 184.07647714 -130.75 185.5 C-134.41609747 187.94406498 -136.38668609 190.92043164 -138 195 C-139.22633251 202.28399223 -137.95584774 207.87103854 -134 214 C-133.649375 214.61746094 -133.29875 215.23492187 -132.9375 215.87109375 C-129.39900732 221.58428506 -124.07369684 224.96018724 -117.58203125 226.6171875 C-109.55620032 227.80709889 -102.33624585 227.53344023 -95 224 C-88.5316323 220.93184201 -88.5316323 220.93184201 -85.5625 221.3125 C-84.7890625 221.6528125 -84.7890625 221.6528125 -84 222 C-84 222.99 -84 223.98 -84 225 C-85.70795034 225.62604585 -87.41637998 226.25078415 -89.125 226.875 C-90.07632813 227.22304687 -91.02765625 227.57109375 -92.0078125 227.9296875 C-92.99523437 228.28289062 -93.98265625 228.63609375 -95 229 C-95.93070313 229.36609375 -96.86140625 229.7321875 -97.8203125 230.109375 C-106.61478835 232.57269256 -118.55737591 232.48727546 -126.82421875 228.4609375 C-134.12035871 223.56191354 -140.45097683 216.80883689 -142.75 208.1875 C-143.82137152 194.52751315 -141.16152487 185.17695552 -133 174 C-128.65072617 169.02940133 -124.56669098 166.0095477 -118 165 C-115.73004581 164.93347145 -113.45831305 164.91456249 -111.1875 164.9375 C-110.02605469 164.94652344 -108.86460938 164.95554688 -107.66796875 164.96484375 C-106.34732422 164.98224609 -106.34732422 164.98224609 -105 165 C-105 165.66 -105 166.32 -105 167 C-103.989375 167.103125 -102.97875 167.20625 -101.9375 167.3125 C-96.50412717 168.26118414 -91.86496754 170.47021688 -87 173 C-85.40901514 169.45796529 -84.72185436 166.57284927 -84.5859375 162.69921875 C-84.54726562 161.72275391 -84.50859375 160.74628906 -84.46875 159.74023438 C-84.4378125 158.73283203 -84.406875 157.72542969 -84.375 156.6875 C-84.33632812 155.66076172 -84.29765625 154.63402344 -84.2578125 153.57617188 C-84.16385103 151.05095735 -84.0781846 148.52574408 -84 146 C-86.87801034 146.22927546 -89.75048838 146.48260357 -92.625 146.75 C-93.43324219 146.811875 -94.24148437 146.87375 -95.07421875 146.9375 C-100.502212 147.46706032 -103.76954568 148.50987519 -108 152 C-109.38868516 154.10039331 -109.38868516 154.10039331 -110 156 C-110.99 156 -111.98 156 -113 156 C-113.38000593 145.97910276 -113.48502495 138.36814452 -107.375 130.1875 C-103.07641682 125.56150631 -98.16895085 124.18014708 -91.9765625 123.828125 C-89.31712631 123.81445181 -86.65755583 123.89908016 -84 124 C-84 118.72 -84 113.44 -84 108 C-88.29 108 -92.58 108 -97 108 C-97 108.66 -97 109.32 -97 110 C-97.9075 110.2475 -98.815 110.495 -99.75 110.75 C-103.15021739 112.05777592 -104.71669612 113.20929526 -107 116 C-107.495 117.485 -107.495 117.485 -108 119 C-108.99 119 -109.98 119 -111 119 C-111.67918591 101.26570133 -111.67918591 101.26570133 -106 95 C-105.34 95 -104.68 95 -104 95 C-103.79375 94.401875 -103.5875 93.80375 -103.375 93.1875 C-101.32417777 89.92482827 -99.66535049 89.26391396 -96 88 C-91.96276568 87.75797192 -88.05185835 87.86493806 -84 88 C-84 80.41 -84 72.82 -84 65 C-85.32 64.34 -86.64 63.68 -88 63 C-88 62.01 -88 61.02 -88 60 C-87.09378906 59.80664062 -86.18757813 59.61328125 -85.25390625 59.4140625 C-82.72973723 58.87450468 -80.20633121 58.33136829 -77.68359375 57.78515625 C-75.57569912 57.33585951 -73.4650288 56.89836335 -71.34765625 56.49609375 C-66.78537352 55.6060878 -63.00621657 54.23416975 -58.921875 52 C-56.67268058 50.82968745 -54.3577781 49.92879236 -52 49 C-51.91291248 44.7501291 -51.85957819 40.50048761 -51.8125 36.25 C-51.78736328 35.0434375 -51.76222656 33.836875 -51.73632812 32.59375 C-51.72666016 31.43359375 -51.71699219 30.2734375 -51.70703125 29.078125 C-51.6913208 28.00981445 -51.67561035 26.94150391 -51.65942383 25.84082031 C-52.04345261 22.63755231 -52.77281821 21.29475405 -55 19 C-57.0316566 18.31149171 -57.0316566 18.31149171 -59.1875 18.25 C-60.445625 18.1675 -61.70375 18.085 -63 18 C-61.84826645 15.53199953 -60.95216435 13.95216435 -59 12 C-57.35 12 -55.7 12 -54 12 C-53.67 8.7 -53.34 5.4 -53 2 C-50.525 1.505 -50.525 1.505 -48 1 C-46.80712589 4.87684087 -46 7.91621923 -46 12 C-45.071875 11.95875 -44.14375 11.9175 -43.1875 11.875 C-40 12 -40 12 -37 14 C-37 15.32 -37 16.64 -37 18 C-38.98567708 18.13020833 -40.97135417 18.26041667 -42.95703125 18.390625 C-45.79728182 19.23781255 -46.46961992 20.49264572 -48 23 C-48.49948459 25.60162971 -48.49948459 25.60162971 -48.51171875 28.421875 C-48.56489258 29.95908203 -48.56489258 29.95908203 -48.61914062 31.52734375 C-48.64169922 32.59082031 -48.66425781 33.65429688 -48.6875 34.75 C-48.72166016 35.82894531 -48.75582031 36.90789063 -48.79101562 38.01953125 C-48.87340663 40.67958377 -48.94258645 43.33931035 -49 46 C-43.91086182 42.81471207 -40.2514604 39.22133439 -36.24609375 34.73046875 C-34 33 -34 33 -31.453125 33.015625 C-28.64560344 34.14221008 -27.33169728 35.32430085 -25.3125 37.5625 C-17.45354983 46.19356353 -17.45354983 46.19356353 -7.125 50.625 C-4.33050039 50.06610008 -2.47736252 49.31911511 0 48 C0.05830787 44.60423938 0.09369946 41.2086085 0.125 37.8125 C0.15013672 36.37293945 0.15013672 36.37293945 0.17578125 34.90429688 C0.18544922 33.50727539 0.18544922 33.50727539 0.1953125 32.08203125 C0.21102295 30.80162964 0.21102295 30.80162964 0.22705078 29.49536133 C-0.05418756 26.40446124 -0.73939021 23.26060979 -3 21 C-4.34747084 20.76924918 -5.70377565 20.58846937 -7.0625 20.4375 C-8.361875 20.293125 -9.66125 20.14875 -11 20 C-10.67 18.35 -10.34 16.7 -10 15 C-9.34 15 -8.68 15 -8 15 C-8 14.34 -8 13.68 -8 13 C-6.02 13.33 -4.04 13.66 -2 14 C-2.02320313 13.32453125 -2.04640625 12.6490625 -2.0703125 11.953125 C-2.08835938 11.06109375 -2.10640625 10.1690625 -2.125 9.25 C-2.14820313 8.36828125 -2.17140625 7.4865625 -2.1953125 6.578125 C-1.99139502 3.8864142 -1.36551721 2.30095026 0 0 Z " fill="#080808" transform="translate(148,4)"/>
<path d="M0 0 C1.875 0.5 1.875 0.5 4 2 C5.59836792 5.98713755 6 9.72005913 6 14 C6.928125 13.95875 7.85625 13.9175 8.8125 13.875 C12 14 12 14 15 16 C15 16.99 15 17.98 15 19 C14.36191406 19.13277344 13.72382813 19.26554687 13.06640625 19.40234375 C11.82697266 19.66724609 11.82697266 19.66724609 10.5625 19.9375 C9.73878906 20.11152344 8.91507813 20.28554688 8.06640625 20.46484375 C6.02338796 20.80752994 6.02338796 20.80752994 5 22 C4.84259395 23.70563778 4.74906608 25.41727244 4.68359375 27.12890625 C4.64169922 28.16337891 4.59980469 29.19785156 4.55664062 30.26367188 C4.51732422 31.35228516 4.47800781 32.44089844 4.4375 33.5625 C4.39431641 34.65498047 4.35113281 35.74746094 4.30664062 36.87304688 C4.20017932 39.58189564 4.09816484 42.29083992 4 45 C11.16219749 41.18532294 11.16219749 41.18532294 16.9375 35.625 C17.618125 34.75875 18.29875 33.8925 19 33 C19.99 33 20.98 33 22 33 C23.2890625 34.6875 23.2890625 34.6875 24.625 37 C28.2141406 42.6567004 33.04362185 48.97612717 39.77734375 50.71875 C40.87755859 50.85796875 40.87755859 50.85796875 42 51 C42.54269531 50.14535156 43.08539063 49.29070313 43.64453125 48.41015625 C44.71767578 46.75306641 44.71767578 46.75306641 45.8125 45.0625 C46.87404297 43.40927734 46.87404297 43.40927734 47.95703125 41.72265625 C50 39 50 39 53 38 C53.24632835 40.2428751 53.24632835 40.2428751 53 43 C51.28304482 45.06412411 51.28304482 45.06412411 49.05874634 47.11399841 C44.19919668 52.31445287 43.88311085 56.25315353 44.06005859 63.17602539 C44.0534874 64.79732109 44.0534874 64.79732109 44.04678345 66.45137024 C44.04218439 70.00140478 44.09453359 73.54806778 44.1484375 77.09765625 C44.15829384 79.57668507 44.16488604 82.05572881 44.16836548 84.53477478 C44.18361711 89.72069141 44.22464655 94.9054984 44.28662109 100.09106445 C44.36581016 106.72757633 44.40185032 113.36336797 44.42123985 120.0002985 C44.44121831 126.34534788 44.48094398 132.69022351 44.5234375 139.03515625 C44.53362474 140.84296916 44.53362474 140.84296916 44.54401779 142.68730354 C44.56726414 146.10953334 44.60431929 149.53131992 44.64599609 152.95336914 C44.65406281 154.4599408 44.65406281 154.4599408 44.66229248 155.99694824 C44.7550874 166.1196246 44.7550874 166.1196246 49.4375 174.75 C50.7059375 175.86375 50.7059375 175.86375 52 177 C57.55184814 182.75012843 56.25794045 193.28269916 56.4296875 200.84570312 C56.75057713 209.06181475 58.73002739 216.52546223 64 223 C69.87402379 227.43548735 74.74416724 228.98081918 82 228 C88.52302923 225.7580107 93.17669992 222.73495012 97 217 C98.80242219 213.22956207 99.29654514 210.16953582 99.3125 206 C99.33763672 204.4840625 99.33763672 204.4840625 99.36328125 202.9375 C98.60072865 196.77148325 94.63536609 193.41645009 90.13671875 189.56640625 C88.12755733 188.09351095 86.38015392 187.18699622 84.0625 186.3125 C83.051875 185.879375 82.04125 185.44625 81 185 C80.30859375 182.91796875 80.30859375 182.91796875 80 181 C87.50217862 181.89165238 92.49779518 183.77995953 98 189 C98.60328125 189.53109375 99.2065625 190.0621875 99.828125 190.609375 C104.3873281 195.42423435 104.77717178 200.62318562 104.64282227 206.9934082 C104.11278319 215.69683291 100.57634114 222.61832306 94.08569336 228.41796875 C86.98114216 233.80688269 79.14821155 234.61599172 70.5 234.4375 C69.04787109 234.44813477 69.04787109 234.44813477 67.56640625 234.45898438 C56.82201689 234.36524138 49.05677467 232.14015695 41.26171875 224.58984375 C32.2006854 214.21425634 29.73490383 202.10268345 28.90917969 188.77539062 C28.4921609 183.44366356 27.41253852 180.30752504 24 176 C19.07581517 169.10614124 18.85319025 163.90445803 18.9375 155.6875 C18.94201172 154.85154297 18.94652344 154.01558594 18.95117188 153.15429688 C18.96289452 151.10283351 18.98082797 149.05140727 19 147 C14.05 147 9.1 147 4 147 C4.11518358 149.66740923 4.24189546 152.33347241 4.375 155 C4.4059375 155.74378906 4.436875 156.48757812 4.46875 157.25390625 C4.88516435 165.23518135 6.28013343 171.36268763 11 178 C13.26598176 182.38431179 13.26071784 186.53735612 13.1953125 191.36328125 C13.1924826 192.15526413 13.18965271 192.94724701 13.18673706 193.76322937 C13.17558863 196.27980999 13.15049422 198.79602789 13.125 201.3125 C13.11496329 203.02408338 13.10583864 204.73567237 13.09765625 206.44726562 C13.07566681 210.63164906 13.04117408 214.81576314 13 219 C13.78375 219.268125 14.5675 219.53625 15.375 219.8125 C18 221 18 221 20 224 C20.6779661 231.11864407 20.6779661 231.11864407 18.125 234.4375 C16 236 16 236 14 237 C13.53101037 239.8159849 13.53101037 239.8159849 13.375 243.0625 C13.30023438 244.16722656 13.22546875 245.27195313 13.1484375 246.41015625 C13.09945312 247.26480469 13.05046875 248.11945313 13 249 C11.68 248.67 10.36 248.34 9 248 C8.98582031 247.25234375 8.97164062 246.5046875 8.95703125 245.734375 C8.81233496 242.7465922 8.605879 239.93125969 8 237 C6.37667033 235.61423077 4.71275535 234.27358732 3 233 C2.43137513 228.52207918 2.52681232 226.13565044 4.25 222 C5.11625 221.01 5.11625 221.01 6 220 C7.32 220 8.64 220 10 220 C9.90626284 214.67946356 9.80012382 209.3593713 9.68261719 204.03930664 C9.64439633 202.23045582 9.6095315 200.42153079 9.578125 198.61254883 C9.53232443 196.00835698 9.47435526 193.404673 9.4140625 190.80078125 C9.40251129 189.99538406 9.39096008 189.18998688 9.37905884 188.36018372 C9.23665738 182.91049492 8.68373829 178.9468224 5 174.6875 C0.26746316 168.32815362 0.71885696 160.49401079 0.77294922 152.90234375 C0.77265717 151.81852921 0.77236511 150.73471466 0.77206421 149.61805725 C0.77345065 146.0577883 0.78897968 142.49773211 0.8046875 138.9375 C0.80842006 136.46028762 0.81126589 133.98307376 0.81326294 131.50585938 C0.82088021 125.00229784 0.84051238 118.49882637 0.8626709 111.99530029 C0.8831704 105.35234632 0.89227342 98.70938352 0.90234375 92.06640625 C0.92376002 79.04423253 0.9574857 66.02212107 1 53 C-0.32 52.34 -1.64 51.68 -3 51 C-2.51249268 50.60216309 -2.02498535 50.20432617 -1.52270508 49.79443359 C0.43163028 47.49134478 0.37398897 46.27854087 0.36328125 43.2890625 C0.36263672 42.37382813 0.36199219 41.45859375 0.36132812 40.515625 C0.34521484 39.56171875 0.32910156 38.6078125 0.3125 37.625 C0.31572266 36.67882813 0.31894531 35.73265625 0.32226562 34.7578125 C0.46562052 27.31175731 0.46562052 27.31175731 -3 21 C-4.34747084 20.76924918 -5.70377565 20.58846937 -7.0625 20.4375 C-8.361875 20.293125 -9.66125 20.14875 -11 20 C-10.67 18.35 -10.34 16.7 -10 15 C-9.34 15 -8.68 15 -8 15 C-8 14.34 -8 13.68 -8 13 C-5.03 13.495 -5.03 13.495 -2 14 C-2.02320313 13.32453125 -2.04640625 12.6490625 -2.0703125 11.953125 C-2.09738281 10.61507813 -2.09738281 10.61507813 -2.125 9.25 C-2.14820313 8.36828125 -2.17140625 7.4865625 -2.1953125 6.578125 C-1.99139502 3.8864142 -1.36551721 2.30095026 0 0 Z " fill="#0C0C0C" transform="translate(148,4)"/>
<path d="M0 0 C0.58394531 0.36609375 1.16789062 0.7321875 1.76953125 1.109375 C0.11953125 1.769375 -1.53046875 2.429375 -3.23046875 3.109375 C-3.2215863 4.38200195 -3.21270386 5.65462891 -3.20355225 6.96582031 C-3.1223902 18.97165295 -3.06246657 30.97742977 -3.02322006 42.98347473 C-3.00236457 49.15560357 -2.97408353 55.32751055 -2.92871094 61.49951172 C-2.88518144 67.45823339 -2.86131631 73.41674193 -2.85095978 79.37561035 C-2.84358124 81.64655918 -2.82917268 83.91749663 -2.80754852 86.18835449 C-2.77842089 89.37452201 -2.77451677 92.55981405 -2.77636719 95.74609375 C-2.76198608 96.68045761 -2.74760498 97.61482147 -2.73278809 98.57749939 C-2.7808795 106.25349629 -4.9362386 111.74334832 -10.04296875 117.484375 C-15.28643257 121.73458356 -22.74367979 121.62516167 -29.23046875 122.109375 C-29.23046875 122.769375 -29.23046875 123.429375 -29.23046875 124.109375 C-28.35865967 124.51820923 -28.35865967 124.51820923 -27.46923828 124.93530273 C-25.25747587 126.09521172 -23.39324692 127.38098787 -21.41015625 128.89453125 C-20.36021484 129.69020508 -20.36021484 129.69020508 -19.2890625 130.50195312 C-18.56847656 131.05302734 -17.84789063 131.60410156 -17.10546875 132.171875 C-15.66643931 133.26833902 -14.22638305 134.36345712 -12.78515625 135.45703125 C-11.83358643 136.18418335 -11.83358643 136.18418335 -10.86279297 136.92602539 C-6.86841644 139.82173927 -3.00405546 139.51266077 1.76953125 139.109375 C4.95264159 138.56729459 4.95264159 138.56729459 6.76953125 136.109375 C7.60089748 130.51091941 7.42841625 125.18235876 4.76953125 120.109375 C2.85848743 118.32962717 2.85848743 118.32962717 0.64453125 116.921875 C-1.55078125 115.44140625 -1.55078125 115.44140625 -3.23046875 114.109375 C-3.23046875 113.449375 -3.23046875 112.789375 -3.23046875 112.109375 C-0.26871752 112.72215112 1.15011908 113.36310022 3.76953125 115.109375 C3.76953125 89.369375 3.76953125 63.629375 3.76953125 37.109375 C4.09953125 37.109375 4.42953125 37.109375 4.76953125 37.109375 C4.76953125 62.849375 4.76953125 88.589375 4.76953125 115.109375 C6.25453125 115.604375 6.25453125 115.604375 7.76953125 116.109375 C8.68359375 117.88671875 8.68359375 117.88671875 9.39453125 120.046875 C10.10701881 122.15752364 10.7723688 124.1150501 11.76953125 126.109375 C12.41379748 135.61230189 8.85053723 142.01237785 2.76953125 149.109375 C-3.148949 155.16236617 -10.14977581 157.0832512 -18.41796875 157.796875 C-27.9364622 157.53961842 -37.56873303 151.12259052 -44.28515625 144.7578125 C-47.15065155 142.32962171 -50.26640285 140.3330058 -53.41796875 138.296875 C-54.02519775 137.89927979 -54.63242676 137.50168457 -55.25805664 137.09204102 C-62.00345205 132.78509998 -68.151093 132.18585214 -75.98046875 133.609375 C-79.64656622 136.05343998 -81.61715484 139.02980664 -83.23046875 143.109375 C-84.45680126 150.39336723 -83.18631649 155.98041354 -79.23046875 162.109375 C-78.87984375 162.72683594 -78.52921875 163.34429687 -78.16796875 163.98046875 C-74.62947607 169.69366006 -69.30416559 173.06956224 -62.8125 174.7265625 C-54.78666907 175.91647389 -47.5667146 175.64281523 -40.23046875 172.109375 C-33.76210105 169.04121701 -33.76210105 169.04121701 -30.79296875 169.421875 C-30.01953125 169.7621875 -30.01953125 169.7621875 -29.23046875 170.109375 C-29.23046875 171.099375 -29.23046875 172.089375 -29.23046875 173.109375 C-30.93841909 173.73542085 -32.64684873 174.36015915 -34.35546875 174.984375 C-35.30679688 175.33242187 -36.258125 175.68046875 -37.23828125 176.0390625 C-38.22570313 176.39226562 -39.213125 176.74546875 -40.23046875 177.109375 C-41.16117188 177.47546875 -42.091875 177.8415625 -43.05078125 178.21875 C-51.8452571 180.68206756 -63.78784466 180.59665046 -72.0546875 176.5703125 C-79.35082746 171.67128854 -85.68144558 164.91821189 -87.98046875 156.296875 C-89.05184027 142.63688815 -86.39199362 133.28633052 -78.23046875 122.109375 C-73.88119492 117.13877633 -69.79715973 114.1189227 -63.23046875 113.109375 C-60.96051456 113.04284645 -58.6887818 113.02393749 -56.41796875 113.046875 C-55.25652344 113.05589844 -54.09507813 113.06492187 -52.8984375 113.07421875 C-52.01800781 113.08582031 -51.13757812 113.09742188 -50.23046875 113.109375 C-50.23046875 113.769375 -50.23046875 114.429375 -50.23046875 115.109375 C-49.21984375 115.2125 -48.20921875 115.315625 -47.16796875 115.421875 C-41.73459592 116.37055914 -37.09543629 118.57959188 -32.23046875 121.109375 C-30.63948389 117.56734029 -29.95232311 114.68222427 -29.81640625 110.80859375 C-29.75839844 109.34389648 -29.75839844 109.34389648 -29.69921875 107.84960938 C-29.66828125 106.84220703 -29.63734375 105.83480469 -29.60546875 104.796875 C-29.56679688 103.77013672 -29.528125 102.74339844 -29.48828125 101.68554688 C-29.39431978 99.16033235 -29.30865335 96.63511908 -29.23046875 94.109375 C-32.10847909 94.33865046 -34.98095713 94.59197857 -37.85546875 94.859375 C-38.66371094 94.92125 -39.47195312 94.983125 -40.3046875 95.046875 C-45.73268075 95.57643532 -49.00001443 96.61925019 -53.23046875 100.109375 C-54.61915391 102.20976831 -54.61915391 102.20976831 -55.23046875 104.109375 C-56.22046875 104.109375 -57.21046875 104.109375 -58.23046875 104.109375 C-58.61047468 94.08847776 -58.7154937 86.47751952 -52.60546875 78.296875 C-48.30688557 73.67088131 -43.3994196 72.28952208 -37.20703125 71.9375 C-34.54759506 71.92382681 -31.88802458 72.00845516 -29.23046875 72.109375 C-29.23046875 66.829375 -29.23046875 61.549375 -29.23046875 56.109375 C-33.52046875 56.109375 -37.81046875 56.109375 -42.23046875 56.109375 C-42.23046875 56.769375 -42.23046875 57.429375 -42.23046875 58.109375 C-43.13796875 58.356875 -44.04546875 58.604375 -44.98046875 58.859375 C-48.38068614 60.16715092 -49.94716487 61.31867026 -52.23046875 64.109375 C-52.72546875 65.594375 -52.72546875 65.594375 -53.23046875 67.109375 C-54.22046875 67.109375 -55.21046875 67.109375 -56.23046875 67.109375 C-56.90965466 49.37507633 -56.90965466 49.37507633 -51.23046875 43.109375 C-50.57046875 43.109375 -49.91046875 43.109375 -49.23046875 43.109375 C-49.02421875 42.51125 -48.81796875 41.913125 -48.60546875 41.296875 C-46.55464652 38.03420327 -44.89581924 37.37328896 -41.23046875 36.109375 C-37.19323443 35.86734692 -33.2823271 35.97431306 -29.23046875 36.109375 C-29.23046875 28.519375 -29.23046875 20.929375 -29.23046875 13.109375 C-30.55046875 12.449375 -31.87046875 11.789375 -33.23046875 11.109375 C-33.23046875 10.119375 -33.23046875 9.129375 -33.23046875 8.109375 C-32.32425781 7.91601562 -31.41804688 7.72265625 -30.484375 7.5234375 C-27.96020598 6.98387968 -25.43679996 6.44074329 -22.9140625 5.89453125 C-20.80616787 5.44523451 -18.69549755 5.00773835 -16.578125 4.60546875 C-11.85490993 3.68406827 -8.17294506 2.23977978 -4.0546875 -0.28125 C-2.23046875 -0.890625 -2.23046875 -0.890625 0 0 Z " fill="#090909" transform="translate(93.23046875,55.890625)"/>
<path d="M0 0 C0 37.95 0 75.9 0 115 C-1.32 114.34 -2.64 113.68 -4 113 C-5.485 112.505 -5.485 112.505 -7 112 C-7 112.66 -7 113.32 -7 114 C-6.1646875 114.37125 -6.1646875 114.37125 -5.3125 114.75 C-0.44343005 117.3819297 2.27655558 119.70765297 4 125 C4.55323875 128.7503204 4.63926455 132.25655897 4 136 C0.93644745 139.37776307 -1.89136155 140.24493722 -6.3125 140.625 C-12.06227434 140.31885561 -15.58491558 137.44822826 -20 134 C-21.15076475 133.14630492 -22.30322418 132.29489125 -23.45703125 131.4453125 C-24.66002091 130.54843784 -25.86184738 129.65000086 -27.0625 128.75 C-27.64741211 128.31381348 -28.23232422 127.87762695 -28.83496094 127.42822266 C-30.26165969 126.33373968 -31.63622774 125.17195885 -33 124 C-33 123.34 -33 122.68 -33 122 C-30.30654723 120.65327361 -27.80639556 120.63290539 -24.8125 120.3125 C-19.56128401 119.52336699 -16.2689525 118.51419207 -12.3671875 114.92578125 C-7.96637712 108.72692549 -7.57352087 103.17635174 -7.64697266 95.79785156 C-7.64481247 94.79703049 -7.64265228 93.79620941 -7.64042664 92.76506042 C-7.63734928 90.60217501 -7.640917 88.43927197 -7.65044022 86.27640533 C-7.66420372 82.85552531 -7.65772747 79.4352236 -7.64559937 76.01434326 C-7.61466099 66.29223768 -7.61958362 56.57026882 -7.63964844 46.84814453 C-7.65053868 40.8941999 -7.63743979 34.94069256 -7.60975266 28.98680878 C-7.60429974 26.71734644 -7.60840726 24.44784067 -7.62215042 22.17841339 C-7.641106 19.01330943 -7.62985766 15.84964781 -7.61181641 12.68457031 C-7.62515518 11.74322739 -7.63849396 10.80188446 -7.65223694 9.83201599 C-7.62189843 7.44785577 -7.56129649 5.31710619 -7 3 C-4.55208728 0.86446493 -3.24676237 0 0 0 Z " fill="#FAFAFA" transform="translate(97,56)"/>
<path d="M0 0 C-0.00138269 0.8484176 -0.00138269 0.8484176 -0.00279331 1.71397495 C-0.0249046 15.49435413 -0.04137499 29.27473019 -0.05181217 43.05512333 C-0.05702933 49.71929225 -0.06410585 56.38344588 -0.07543945 63.04760742 C-0.08630973 69.47962507 -0.09228564 75.91163041 -0.09487724 82.34365654 C-0.09672402 84.79682039 -0.10033027 87.24998357 -0.10573006 89.70314217 C-0.11299537 93.14073261 -0.11398861 96.57827224 -0.11352539 100.01586914 C-0.11712067 101.02863419 -0.12071594 102.04139923 -0.12442017 103.08485413 C-0.11701523 108.16772962 0.12243573 112.99087736 1 118 C-3.51278748 116.58169536 -6.10844309 114.76120706 -9 111 C-9.74382376 107.49480726 -9.6832558 104.0466028 -9.64697266 100.47412109 C-9.65573425 99.41507065 -9.66449585 98.3560202 -9.67352295 97.26487732 C-9.69551474 93.76731299 -9.68096588 90.27101447 -9.6640625 86.7734375 C-9.66743016 84.34396115 -9.67228236 81.91448644 -9.67855835 79.48501587 C-9.68592901 74.39577173 -9.6752153 69.30696655 -9.65185547 64.21777344 C-9.62333813 57.68577421 -9.63979047 51.15480075 -9.66971779 44.62283897 C-9.68775913 39.60773952 -9.68204763 34.59288456 -9.66907883 29.57777786 C-9.66573767 27.16875716 -9.66985667 24.75971444 -9.68147659 22.35071945 C-9.69413584 18.98890845 -9.67487645 15.6287754 -9.64697266 12.26708984 C-9.65709381 11.2665004 -9.66721497 10.26591095 -9.67764282 9.23500061 C-9.63889725 6.72313891 -9.56074914 4.44822174 -9 2 C-5.79585141 -1.08350153 -4.09081103 -1.22845505 0 0 Z " fill="#F1F1F1" transform="translate(150,57)"/>
<path d="M0 0 C5.28 0 10.56 0 16 0 C16 12.21 16 24.42 16 37 C10.72 37 5.44 37 0 37 C0 24.79 0 12.58 0 0 Z " fill="#F7F7F7" transform="translate(100,112)"/>
<path d="M0 0 C4.95 0 9.9 0 15 0 C15 11.88 15 23.76 15 36 C10.05 36 5.1 36 0 36 C0 24.12 0 12.24 0 0 Z " fill="#FAFAFA" transform="translate(152,113)"/>
<path d="M0 0 C1.98 0.99 1.98 0.99 4 2 C5.38445312 2.47179688 5.38445312 2.47179688 6.796875 2.953125 C10.51839432 4.58744301 12.46941802 5.76719222 15 9 C16.45987239 16.19741159 15.61469537 23.7416274 15 31 C10.05 31 5.1 31 0 31 C0 20.77 0 10.54 0 0 Z " fill="#F8F8F8" transform="translate(100,60)"/>
<path d="M0 0 C2.31 1.98 4.62 3.96 7 6 C7.72582275 6.51191895 8.45164551 7.02383789 9.19946289 7.55126953 C11.95626476 9.49562729 13.73106407 10.8989615 14.55029297 14.25292969 C14.68828733 16.82983538 14.61388555 19.30093389 14.4375 21.875 C14.40591797 22.75414063 14.37433594 23.63328125 14.34179688 24.5390625 C14.25980944 26.69416087 14.13426323 28.847526 14 31 C9.38 31 4.76 31 0 31 C0 20.77 0 10.54 0 0 Z " fill="#F9F9F9" transform="translate(152,61)"/>
<path d="M0 0 C1.875 0.5 1.875 0.5 4 2 C5.59836792 5.98713755 6 9.72005913 6 14 C6.928125 13.95875 7.85625 13.9175 8.8125 13.875 C12 14 12 14 15 16 C15 16.99 15 17.98 15 19 C14.36191406 19.13277344 13.72382813 19.26554687 13.06640625 19.40234375 C11.82697266 19.66724609 11.82697266 19.66724609 10.5625 19.9375 C9.73878906 20.11152344 8.91507813 20.28554688 8.06640625 20.46484375 C6.02338796 20.80752994 6.02338796 20.80752994 5 22 C4.84259395 23.70563778 4.74906608 25.41727244 4.68359375 27.12890625 C4.64169922 28.16337891 4.59980469 29.19785156 4.55664062 30.26367188 C4.51732422 31.35228516 4.47800781 32.44089844 4.4375 33.5625 C4.39431641 34.65498047 4.35113281 35.74746094 4.30664062 36.87304688 C4.20017932 39.58189564 4.09816484 42.29083992 4 45 C3.67 45 3.34 45 3 45 C2.67 43.02 2.34 41.04 2 39 C1.67 39 1.34 39 1 39 C0.87882813 37.86820313 0.75765625 36.73640625 0.6328125 35.5703125 C0.46399724 34.08848969 0.29470145 32.60672158 0.125 31.125 C0.04636719 30.37863281 -0.03226563 29.63226563 -0.11328125 28.86328125 C-0.5080769 24.47444593 -0.5080769 24.47444593 -3 21 C-5.65537372 20.43479997 -8.29144713 20.26211802 -11 20 C-10.67 18.35 -10.34 16.7 -10 15 C-9.34 15 -8.68 15 -8 15 C-8 14.34 -8 13.68 -8 13 C-5.03 13.495 -5.03 13.495 -2 14 C-2.02320313 13.32453125 -2.04640625 12.6490625 -2.0703125 11.953125 C-2.09738281 10.61507813 -2.09738281 10.61507813 -2.125 9.25 C-2.14820313 8.36828125 -2.17140625 7.4865625 -2.1953125 6.578125 C-1.99139502 3.8864142 -1.36551721 2.30095026 0 0 Z " fill="#252525" transform="translate(148,4)"/>
<path d="M0 0 C1.67542976 0.28604898 3.34385343 0.61781233 5 1 C5.33 4.3 5.66 7.6 6 11 C6.928125 10.95875 7.85625 10.9175 8.8125 10.875 C12 11 12 11 15 13 C15 14.32 15 15.64 15 17 C12.02148438 17.1953125 12.02148438 17.1953125 9.04296875 17.390625 C6.21072446 18.23542444 5.53088549 19.5061037 4 22 C3.53306044 24.45563202 3.53306044 24.45563202 3.55859375 27.09765625 C3.53216797 28.06380859 3.50574219 29.02996094 3.47851562 30.02539062 C3.46498047 31.02763672 3.45144531 32.02988281 3.4375 33.0625 C3.40306157 35.05355124 3.36045499 37.04448263 3.30859375 39.03515625 C3.29626709 39.9156665 3.28394043 40.79617676 3.27124023 41.70336914 C3 44 3 44 1 47 C0.98541748 46.26362305 0.97083496 45.52724609 0.95581055 44.76855469 C0.88128889 41.42850996 0.78464127 38.08946019 0.6875 34.75 C0.66494141 33.59113281 0.64238281 32.43226562 0.61914062 31.23828125 C0.58369141 30.12324219 0.54824219 29.00820313 0.51171875 27.859375 C0.48553467 26.83295898 0.45935059 25.80654297 0.43237305 24.74902344 C-0.05423419 21.6551796 -0.85399303 20.24844794 -3 18 C-5.0316566 17.31149171 -5.0316566 17.31149171 -7.1875 17.25 C-8.445625 17.1675 -9.70375 17.085 -11 17 C-9.84826645 14.53199953 -8.95216435 12.95216435 -7 11 C-4.375 10.875 -4.375 10.875 -2 11 C-1.93941406 10.28972656 -1.87882812 9.57945313 -1.81640625 8.84765625 C-1.73261719 7.92855469 -1.64882812 7.00945313 -1.5625 6.0625 C-1.48128906 5.14597656 -1.40007812 4.22945312 -1.31640625 3.28515625 C-1 1 -1 1 0 0 Z " fill="#131313" transform="translate(96,5)"/>
<path d="M0 0 C0.33 0 0.66 0 1 0 C1 25.74 1 51.48 1 78 C1.99 78.33 2.98 78.66 4 79 C4.94921875 81.28515625 4.94921875 81.28515625 5.6875 84.0625 C6.06455078 85.44115234 6.06455078 85.44115234 6.44921875 86.84765625 C6.63097656 87.55792969 6.81273438 88.26820313 7 89 C6.34 89 5.68 89 5 89 C5 91.31 5 93.62 5 96 C4.67 96 4.34 96 4 96 C3.87625 94.783125 3.7525 93.56625 3.625 92.3125 C2.89085212 86.14805082 2.89085212 86.14805082 -0.91015625 81.43359375 C-2.36039794 80.37212938 -3.83028016 79.33687512 -5.3203125 78.33203125 C-5.87460938 77.89246094 -6.42890625 77.45289063 -7 77 C-7 76.34 -7 75.68 -7 75 C-4.03824877 75.61277612 -2.61941217 76.25372522 0 78 C0 52.26 0 26.52 0 0 Z " fill="#5C5C5C" transform="translate(97,93)"/>
<path d="M0 0 C0.33 0 0.66 0 1 0 C1 11.88 1 23.76 1 36 C6.28 36 11.56 36 17 36 C17 36.99 17 37.98 17 39 C11.72 39 6.44 39 1 39 C1 45.27 1 51.54 1 58 C0.34 58 -0.32 58 -1 58 C-1.20652332 38.6556492 -0.57936235 19.33313682 0 0 Z " fill="#1D1D1D" transform="translate(99,113)"/>
<path d="M0 0 C2.0625 0.4375 2.0625 0.4375 4 1 C4 1.99 4 2.98 4 4 C2.29204966 4.62604585 0.58362002 5.25078415 -1.125 5.875 C-2.07632813 6.22304687 -3.02765625 6.57109375 -4.0078125 6.9296875 C-4.99523437 7.28289062 -5.98265625 7.63609375 -7 8 C-7.92167969 8.36867187 -8.84335937 8.73734375 -9.79296875 9.1171875 C-13.98384282 10.2708264 -17.86316227 10.29208601 -22.1875 10.25 C-22.99380859 10.25773438 -23.80011719 10.26546875 -24.63085938 10.2734375 C-25.79391602 10.26957031 -25.79391602 10.26957031 -26.98046875 10.265625 C-28.03077271 10.26224121 -28.03077271 10.26224121 -29.10229492 10.25878906 C-31 10 -31 10 -34 8 C-32.80761719 8.03480469 -31.61523438 8.06960937 -30.38671875 8.10546875 C-28.82032658 8.13360753 -27.25391919 8.1609076 -25.6875 8.1875 C-24.50897461 8.22520508 -24.50897461 8.22520508 -23.30664062 8.26367188 C-22.54931641 8.27333984 -21.79199219 8.28300781 -21.01171875 8.29296875 C-20.31522217 8.3086792 -19.61872559 8.32438965 -18.90112305 8.34057617 C-16.43406283 7.89861534 -15.67830685 6.80550724 -14 5 C-10.8984375 3.8671875 -10.8984375 3.8671875 -7.375 2.875 C-3.38110157 2.02049467 -3.38110157 2.02049467 0 0 Z " fill="#202020" transform="translate(60,225)"/>
<path d="M0 0 C0.33 0 0.66 0 1 0 C1.2475 1.19625 1.495 2.3925 1.75 3.625 C2.75201662 7.71236276 4.61069065 10.53164771 7 14 C8.28929549 18.4156493 8.04035717 22.81477981 7.87890625 27.36328125 C7.85529526 28.15526413 7.83168427 28.94724701 7.80735779 29.76322937 C7.73110306 32.27985281 7.64691584 34.79613841 7.5625 37.3125 C7.50924101 39.0240723 7.4565009 40.73566083 7.40429688 42.44726562 C7.27553999 46.63172224 7.13967078 50.81589403 7 55 C6.67 55 6.34 55 6 55 C5.98018066 53.90534424 5.96036133 52.81068848 5.93994141 51.68286133 C5.86370563 47.61052971 5.7750162 43.53854704 5.68261719 39.46655273 C5.64440159 37.70620629 5.60953587 35.94578374 5.578125 34.18530273 C5.53231286 31.65060275 5.47434583 29.11642336 5.4140625 26.58203125 C5.40251129 25.79850784 5.39096008 25.01498444 5.37905884 24.2077179 C5.22889181 18.61215033 4.70387693 14.80124133 0.8125 10.6875 C-1.20576898 7.69489427 -1.18852632 7.09959522 -0.75 3.6875 C-0.5025 2.470625 -0.255 1.25375 0 0 Z " fill="#565656" transform="translate(152,168)"/>
<path d="M0 0 C0.66 0.33 1.32 0.66 2 1 C1.67 10.9 1.34 20.8 1 31 C0.34 31.33 -0.32 31.66 -1 32 C-2.70185193 21.15069396 -2.40535069 10.71669638 0 0 Z " fill="#272727" transform="translate(151,60)"/>
<path d="M0 0 C0.66 0 1.32 0 2 0 C2.37992882 3.34218632 2.23536171 4.66954796 0.25 7.45703125 C-0.86375 8.62298828 -0.86375 8.62298828 -2 9.8125 C-2.7425 10.60269531 -3.485 11.39289062 -4.25 12.20703125 C-4.8275 12.79871094 -5.405 13.39039063 -6 14 C-6.66 13.67 -7.32 13.34 -8 13 C-6.44759763 8.03231242 -3.48945219 3.82132943 0 0 Z " fill="#1B1B1B" transform="translate(199,42)"/>
<path d="M0 0 C1.32 0.33 2.64 0.66 4 1 C4 4.63 4 8.26 4 12 C2.68 11.67 1.36 11.34 0 11 C0 7.37 0 3.74 0 0 Z " fill="#313131" transform="translate(157,241)"/>
<path d="M0 0 C0 0.99 0 1.98 0 3 C-4.95 4.485 -4.95 4.485 -10 6 C-10.33 4.68 -10.66 3.36 -11 2 C-3.57142857 -1.57142857 -3.57142857 -1.57142857 0 0 Z " fill="#232323" transform="translate(64,226)"/>
<path d="M0 0 C4.95 0.99 4.95 0.99 10 2 C9.01 2.495 9.01 2.495 8 3 C8 3.99 8 4.98 8 6 C2.25 5.25 2.25 5.25 0 3 C0 2.01 0 1.02 0 0 Z " fill="#2E2E2E" transform="translate(228,185)"/>
<path d="M0 0 C0.33 1.32 0.66 2.64 1 4 C2.98 4 4.96 4 7 4 C7 4.33 7 4.66 7 5 C6.05125 5.28875 5.1025 5.5775 4.125 5.875 C0.94788422 6.76825109 0.94788422 6.76825109 -1 9 C-3.125 8.625 -3.125 8.625 -5 8 C-5 7.34 -5 6.68 -5 6 C-4.360625 5.7525 -3.72125 5.505 -3.0625 5.25 C-0.81258459 4.18437567 -0.81258459 4.18437567 -0.25 1.875 C-0.1675 1.25625 -0.085 0.6375 0 0 Z " fill="#5F5F5F" transform="translate(101,12)"/>
<path d="M0 0 C0.99 0 1.98 0 3 0 C3 2.64 3 5.28 3 8 C2.01 8.33 1.02 8.66 0 9 C0 6.03 0 3.06 0 0 Z " fill="#1B1B1B" transform="translate(102,182)"/>
<path d="M0 0 C3 3.75 3 3.75 3 6 C2.34 6 1.68 6 1 6 C1 8.31 1 10.62 1 13 C0.67 13 0.34 13 0 13 C-0.22786458 11.01432292 -0.45572917 9.02864583 -0.68359375 7.04296875 C-0.97170735 4.80603607 -0.97170735 4.80603607 -2 2 C-1.34 2 -0.68 2 0 2 C0 1.34 0 0.68 0 0 Z " fill="#424242" transform="translate(101,176)"/>
<path d="M0 0 C1.98 0.495 1.98 0.495 4 1 C4 1.99 4 2.98 4 4 C2.35 4.33 0.7 4.66 -1 5 C-0.67 3.35 -0.34 1.7 0 0 Z " fill="#424242" transform="translate(60,225)"/>
<path d="M0 0 C0.66 0.33 1.32 0.66 2 1 C-0.31 3.31 -2.62 5.62 -5 8 C-5.33 7.34 -5.66 6.68 -6 6 C-4 4 -2 2 0 0 Z " fill="#323232" transform="translate(21,172)"/>
</svg>
